<svg aria-hidden="true" style="position: absolute; width: 0; height: 0; overflow: hidden;" version="1.1" xmlns="http://www.w3.org/2000/svg" xmlns:xlink="http://www.w3.org/1999/xlink">
<defs>
<symbol id="icon-bookmark" viewBox="0 0 20 20">
<path d="M14 2v17l-4-4-4 4v-17c0-0.553 0.585-1.020 1-1h6c0.689-0.020 1 0.447 1 1z"></path>
</symbol>
<symbol id="icon-heart-outlined" viewBox="0 0 20 20">
<path d="M17.19 4.156c-1.672-1.535-4.383-1.535-6.055 0l-1.135 1.041-1.136-1.041c-1.672-1.535-4.382-1.535-6.054 0-1.881 1.726-1.881 4.519 0 6.245l7.19 6.599 7.19-6.599c1.88-1.726 1.88-4.52 0-6.245zM16.124 9.375l-6.124 5.715-6.125-5.715c-0.617-0.567-0.856-1.307-0.856-2.094s0.138-1.433 0.756-1.999c0.545-0.501 1.278-0.777 2.063-0.777s1.517 0.476 2.062 0.978l2.1 1.825 2.099-1.826c0.546-0.502 1.278-0.978 2.063-0.978s1.518 0.276 2.063 0.777c0.618 0.566 0.755 1.212 0.755 1.999s-0.238 1.528-0.856 2.095z"></path>
</symbol>
<symbol id="icon-heart" viewBox="0 0 20 20">
<path d="M17.19 4.155c-1.672-1.534-4.383-1.534-6.055 0l-1.135 1.042-1.136-1.042c-1.672-1.534-4.382-1.534-6.054 0-1.881 1.727-1.881 4.52 0 6.246l7.19 6.599 7.19-6.599c1.88-1.726 1.88-4.52 0-6.246z"></path>
</symbol>
<symbol id="icon-home" viewBox="0 0 20 20">
<path d="M18.672 11h-1.672v6c0 0.445-0.194 1-1 1h-4v-6h-4v6h-4c-0.806 0-1-0.555-1-1v-6h-1.672c-0.598 0-0.47-0.324-0.060-0.748l8.024-8.032c0.195-0.202 0.451-0.302 0.708-0.312 0.257 0.010 0.513 0.109 0.708 0.312l8.023 8.031c0.411 0.425 0.539 0.749-0.059 0.749z"></path>
</symbol>
<symbol id="icon-star" viewBox="0 0 20 20">
<path d="M10 1.3l2.388 6.722h6.412l-5.232 3.948 1.871 6.928-5.439-4.154-5.438 4.154 1.87-6.928-5.233-3.948h6.412l2.389-6.722z"></path>
</symbol>
<symbol id="icon-spinner3" viewBox="0 0 32 32">
<path d="M16 9.472c-1.030 0-1.865-0.835-1.865-1.865v-5.596c0-1.030 0.835-1.865 1.865-1.865s1.865 0.835 1.865 1.865v5.596c0 1.030-0.835 1.865-1.865 1.865z"></path>
<path d="M16 31.155c-0.644 0-1.166-0.522-1.166-1.166v-5.596c0-0.644 0.522-1.166 1.166-1.166s1.166 0.522 1.166 1.166v5.596c0 0.644-0.522 1.166-1.166 1.166z"></path>
<path d="M11.805 10.48c-0.604 0-1.192-0.314-1.516-0.875l-2.798-4.846c-0.483-0.836-0.196-1.906 0.64-2.389s1.906-0.196 2.389 0.64l2.798 4.846c0.483 0.836 0.196 1.906-0.64 2.389-0.275 0.159-0.576 0.235-0.873 0.235z"></path>
<path d="M22.995 29.164c-0.363 0-0.715-0.188-0.91-0.525l-2.798-4.846c-0.29-0.502-0.118-1.143 0.384-1.433s1.143-0.118 1.433 0.384l2.798 4.846c0.29 0.502 0.118 1.143-0.384 1.433-0.165 0.095-0.346 0.141-0.524 0.141z"></path>
<path d="M8.729 13.436c-0.277 0-0.557-0.070-0.814-0.219l-4.846-2.798c-0.781-0.451-1.048-1.449-0.597-2.229s1.449-1.048 2.229-0.597l4.846 2.798c0.781 0.451 1.048 1.449 0.597 2.229-0.302 0.524-0.851 0.816-1.415 0.816z"></path>
<path d="M28.114 23.927c-0.158 0-0.319-0.040-0.465-0.125l-4.846-2.798c-0.446-0.258-0.599-0.828-0.341-1.274s0.828-0.599 1.274-0.341l4.846 2.798c0.446 0.258 0.599 0.828 0.341 1.274-0.173 0.299-0.486 0.466-0.809 0.466z"></path>
<path d="M7.607 17.515h-5.596c-0.837 0-1.516-0.678-1.516-1.515s0.678-1.515 1.516-1.515h5.596c0.837 0 1.516 0.678 1.516 1.515s-0.678 1.515-1.516 1.515z"></path>
<path d="M29.989 16.933c-0 0 0 0 0 0h-5.596c-0.515-0-0.933-0.418-0.933-0.933s0.418-0.933 0.933-0.933c0 0 0 0 0 0h5.596c0.515 0 0.933 0.418 0.933 0.933s-0.418 0.933-0.933 0.933z"></path>
<path d="M3.886 24.394c-0.483 0-0.954-0.251-1.213-0.7-0.386-0.669-0.157-1.525 0.512-1.911l4.846-2.798c0.669-0.387 1.525-0.157 1.911 0.512s0.157 1.525-0.512 1.911l-4.846 2.798c-0.22 0.127-0.461 0.188-0.698 0.188z"></path>
<path d="M23.27 12.736c-0.322 0-0.636-0.167-0.809-0.466-0.258-0.446-0.105-1.016 0.341-1.274l4.846-2.798c0.446-0.257 1.016-0.105 1.274 0.341s0.105 1.016-0.341 1.274l-4.846 2.798c-0.147 0.085-0.307 0.125-0.465 0.125z"></path>
<path d="M9.004 29.397c-0.218 0-0.438-0.055-0.64-0.172-0.613-0.354-0.823-1.138-0.469-1.752l2.798-4.846c0.354-0.613 1.138-0.823 1.752-0.469s0.823 1.138 0.469 1.752l-2.798 4.846c-0.237 0.411-0.668 0.641-1.112 0.641z"></path>
<path d="M20.196 9.664c-0.158 0-0.319-0.040-0.465-0.125-0.446-0.258-0.599-0.828-0.341-1.274l2.798-4.846c0.258-0.446 0.828-0.599 1.274-0.341s0.599 0.828 0.341 1.274l-2.798 4.846c-0.173 0.299-0.486 0.466-0.809 0.466z"></path>
</symbol>
<symbol id="icon-cross" viewBox="0 0 32 32">
<path d="M31.708 25.708c-0-0-0-0-0-0l-9.708-9.708 9.708-9.708c0-0 0-0 0-0 0.105-0.105 0.18-0.227 0.229-0.357 0.133-0.356 0.057-0.771-0.229-1.057l-4.586-4.586c-0.286-0.286-0.702-0.361-1.057-0.229-0.13 0.048-0.252 0.124-0.357 0.228 0 0-0 0-0 0l-9.708 9.708-9.708-9.708c-0-0-0-0-0-0-0.105-0.104-0.227-0.18-0.357-0.228-0.356-0.133-0.771-0.057-1.057 0.229l-4.586 4.586c-0.286 0.286-0.361 0.702-0.229 1.057 0.049 0.13 0.124 0.252 0.229 0.357 0 0 0 0 0 0l9.708 9.708-9.708 9.708c-0 0-0 0-0 0-0.104 0.105-0.18 0.227-0.229 0.357-0.133 0.355-0.057 0.771 0.229 1.057l4.586 4.586c0.286 0.286 0.702 0.361 1.057 0.229 0.13-0.049 0.252-0.124 0.357-0.229 0-0 0-0 0-0l9.708-9.708 9.708 9.708c0 0 0 0 0 0 0.105 0.105 0.227 0.18 0.357 0.229 0.356 0.133 0.771 0.057 1.057-0.229l4.586-4.586c0.286-0.286 0.362-0.702 0.229-1.057-0.049-0.13-0.124-0.252-0.229-0.357z"></path>
</symbol>
</defs>
</svg>
